<?xml version="1.0" encoding="UTF-8" standalone="no"?>
<!-- Generator: Adobe Illustrator 19.2.1, SVG Export Plug-In . SVG Version: 6.00 Build 0)  -->

<svg
   xmlns:dc="http://purl.org/dc/elements/1.1/"
   xmlns:cc="http://creativecommons.org/ns#"
   xmlns:rdf="http://www.w3.org/1999/02/22-rdf-syntax-ns#"
   xmlns:svg="http://www.w3.org/2000/svg"
   xmlns="http://www.w3.org/2000/svg"
   xmlns:sodipodi="http://sodipodi.sourceforge.net/DTD/sodipodi-0.dtd"
   xmlns:inkscape="http://www.inkscape.org/namespaces/inkscape"
   version="1.1"
   id="Layer_1"
   x="0px"
   y="0px"
   viewBox="0 0 595.3 427.3"
   enable-background="new 0 0 595.3 595.3"
   xml:space="preserve"
   inkscape:version="0.48.5 r10040"
   width="100%"
   height="100%"
   sodipodi:docname="IRIF_full_noborder.svg"><metadata
     id="metadata3282"><rdf:RDF><cc:Work
         rdf:about=""><dc:format>image/svg+xml</dc:format><dc:type
           rdf:resource="http://purl.org/dc/dcmitype/StillImage" /><dc:title /></cc:Work></rdf:RDF></metadata><defs
     id="defs3280" /><sodipodi:namedview
     pagecolor="#ffffff"
     bordercolor="#666666"
     borderopacity="1"
     objecttolerance="10"
     gridtolerance="10"
     guidetolerance="10"
     inkscape:pageopacity="0"
     inkscape:pageshadow="2"
     inkscape:window-width="1391"
     inkscape:window-height="855"
     id="namedview3278"
     showgrid="false"
     inkscape:zoom="0.79287755"
     inkscape:cx="280.21315"
     inkscape:cy="168.30826"
     inkscape:window-x="141"
     inkscape:window-y="63"
     inkscape:window-maximized="0"
     inkscape:current-layer="Layer_1" /><path
     d="m 20.596837,135.9922 c -6.312989,0 -11.5375305,-5.22453 -11.5375305,-11.53754 V 19.963837 c 0,-6.312992 5.2245415,-11.537532 11.5375305,-11.537532 6.312989,0 11.537526,5.22454 11.537526,11.537532 V 124.45466 c 0,6.53067 -5.224537,11.53754 -11.537526,11.53754 m 138.014973,0 c -6.31298,0 -11.53751,-5.22453 -11.53751,-11.53754 V 19.963837 c 0,-6.312992 5.22453,-11.537532 11.53751,-11.537532 6.31299,0 11.53754,5.22454 11.53754,11.537532 V 124.45466 c 0,6.53067 -5.22455,11.53754 -11.53754,11.53754 m 139.10344,0 c -6.31299,0 -11.53754,-5.22453 -11.53754,-11.53754 V 19.963837 c 0,-6.312992 5.22455,-11.537532 11.53754,-11.537532 6.31297,0 11.53752,5.22454 11.53752,11.537532 V 124.45466 c -0.2177,6.53067 -5.22455,11.53754 -11.53752,11.53754 m 137.57959,0 c -6.31298,0 -11.53752,-5.22453 -11.53752,-11.53754 V 19.963837 c 0,-6.312992 5.22454,-11.537532 11.53752,-11.537532 6.31299,0 11.53751,5.22454 11.53751,11.537532 V 124.45466 c 0,6.53067 -5.22452,11.53754 -11.53751,11.53754"
     id="path3164"
     inkscape:connector-curvature="0"
     style="fill:#1d1d1b" /><ellipse
     cx="258.89999"
     cy="203.60001"
     rx="6.3000002"
     ry="6.3000002"
     id="ellipse3166"
     sodipodi:cx="258.89999"
     sodipodi:cy="203.60001"
     sodipodi:rx="6.3000002"
     sodipodi:ry="6.3000002"
     transform="matrix(2.1768923,0,0,2.1768923,-371.02608,-420.63918)"
     style="fill:#1d1d1b" /><g
     id="g3168"
     transform="matrix(2.1768923,0,0,2.1768923,-371.02608,-420.63918)"><ellipse
       cx="386.70001"
       cy="203.60001"
       rx="6.3000002"
       ry="6.3000002"
       id="ellipse3170"
       d="m 393.00001,203.60001 c 0,3.47939 -2.8206,6.3 -6.3,6.3 -3.47939,0 -6.3,-2.82061 -6.3,-6.3 0,-3.4794 2.82061,-6.3 6.3,-6.3 3.4794,0 6.3,2.8206 6.3,6.3 z"
       sodipodi:cx="386.70001"
       sodipodi:cy="203.60001"
       sodipodi:rx="6.3000002"
       sodipodi:ry="6.3000002"
       style="fill:#1d1d1b" /><ellipse
       cx="386.70001"
       cy="219.5"
       rx="6.3000002"
       ry="6.3000002"
       id="ellipse3172"
       d="m 393.00001,219.5 c 0,3.47939 -2.8206,6.3 -6.3,6.3 -3.47939,0 -6.3,-2.82061 -6.3,-6.3 0,-3.47939 2.82061,-6.3 6.3,-6.3 3.4794,0 6.3,2.82061 6.3,6.3 z"
       sodipodi:cx="386.70001"
       sodipodi:cy="219.5"
       sodipodi:rx="6.3000002"
       sodipodi:ry="6.3000002"
       style="fill:#1d1d1b" /></g><path
     d="m 14.283848,173.8701 c -2.612271,0 -4.7891615,2.17692 -4.7891615,5.00686 v 28.95267 c 0,2.82997 2.1768905,5.00684 4.7891615,5.00684 2.61227,0 4.789164,-2.17687 4.789164,-5.00684 v -28.95267 c -0.217688,-2.82994 -2.176894,-5.00686 -4.789164,-5.00686 z"
     id="path3174"
     inkscape:connector-curvature="0"
     style="fill:#1d1d1b" /><path
     d="m 94.611184,188.67297 c -6.095309,-1.74149 -6.748358,-2.39456 -6.748358,-3.91839 0,-1.30615 1.30614,-2.17689 3.483008,-2.17689 1.959221,0 4.1361,0.65305 6.748369,2.39457 0.87076,0.43539 1.523841,0.65308 2.394597,0.65308 2.61226,0 4.57147,-1.95921 4.57147,-4.57147 0,-1.74153 -0.87076,-3.04766 -2.17689,-3.91842 -3.265336,-2.17689 -7.183735,-3.48304 -11.319845,-3.48304 -7.619119,0 -12.843647,4.78919 -12.843647,11.97293 0,8.05448 5.442208,10.2314 11.972908,11.97292 5.659887,1.5238 6.095278,2.39456 6.095278,3.70071 0,2.17688 -2.82996,2.39458 -3.918399,2.39458 -2.829949,0 -5.442229,-1.08846 -8.054499,-3.04766 -0.87076,-0.65307 -1.74152,-0.87076 -2.612258,-0.87076 -2.612281,0 -4.571501,1.95922 -4.571501,4.57148 0,1.5238 0.65307,3.04766 1.74153,3.70072 3.918389,2.82997 8.707569,4.57146 13.496728,4.57146 8.272175,0 13.496725,-4.78916 13.496725,-12.40827 -0.2177,-6.74837 -4.78916,-9.57833 -11.755216,-11.53755 z"
     id="path3176"
     inkscape:connector-curvature="0"
     style="fill:#1d1d1b" /><path
     d="m 141.41438,174.0878 h -21.98662 c -2.39458,0 -4.35379,2.1769 -4.35379,4.57149 0,2.61227 1.95921,4.57145 4.35379,4.57145 h 6.31298 v 24.3812 c 0,2.82997 2.1769,5.00685 4.78917,5.00685 2.61227,0 4.78917,-2.17688 4.78917,-5.00685 v -24.3812 h 6.313 c 2.39458,0 4.35378,-2.17687 4.35378,-4.57145 -0.21771,-2.39459 -2.17689,-4.57149 -4.57148,-4.57149 z"
     id="path3178"
     inkscape:connector-curvature="0"
     style="fill:#1d1d1b" /><path
     d="m 162.09484,173.8701 c -2.61227,0 -4.78914,2.17692 -4.78914,5.00686 v 28.95267 c 0,2.82997 2.17687,5.00684 4.78914,5.00684 2.61227,0 4.78918,-2.17687 4.78918,-5.00684 v -28.95267 c 0,-2.82994 -2.17691,-5.00686 -4.78918,-5.00686 z"
     id="path3180"
     inkscape:connector-curvature="0"
     style="fill:#1d1d1b" /><path
     d="m 204.76192,174.0878 h -21.9866 c -2.39457,0 -4.35379,2.1769 -4.35379,4.57149 0,2.61227 1.95922,4.57145 4.35379,4.57145 h 6.31299 v 24.3812 c 0,2.82997 2.17692,5.00685 4.78918,5.00685 2.61228,0 4.78915,-2.17688 4.78915,-5.00685 v -24.3812 h 6.313 c 2.39455,0 4.35378,-2.17687 4.35378,-4.57145 0,-2.39459 -1.95923,-4.57149 -4.5715,-4.57149 z"
     id="path3182"
     inkscape:connector-curvature="0"
     style="fill:#1d1d1b" /><path
     d="m 246.99366,173.8701 c -2.61226,0 -4.78918,2.17692 -4.78918,5.00686 v 17.19747 c 0,3.48302 -1.08845,7.83681 -6.31299,7.83681 -5.22454,0 -6.31297,-4.35379 -6.31297,-8.0545 v -16.76209 c 0,-2.82995 -2.17691,-5.00685 -4.78917,-5.00685 -2.61228,0 -4.78916,2.1769 -4.78916,5.00685 v 16.97978 c 0,10.88446 5.65992,16.97974 15.67363,16.97974 10.01369,0 15.89129,-6.31297 15.89129,-17.41513 v -16.76208 c 0,-2.82994 -1.95918,-5.00686 -4.57145,-5.00686 z"
     id="path3184"
     inkscape:connector-curvature="0"
     style="fill:#1d1d1b" /><path
     d="m 288.78997,174.0878 h -21.98659 c -2.39457,0 -4.35379,2.1769 -4.35379,4.57149 0,2.61227 1.95922,4.57145 4.35379,4.57145 h 6.31298 v 24.3812 c 0,2.82997 2.17689,5.00685 4.78917,5.00685 2.61225,0 4.78916,-2.17688 4.78916,-5.00685 v -24.3812 h 6.31297 c 2.3946,0 4.35378,-2.17687 4.35378,-4.57145 -0.21768,-2.39459 -2.17688,-4.57149 -4.57147,-4.57149 z"
     id="path3186"
     inkscape:connector-curvature="0"
     style="fill:#1d1d1b" /><path
     d="m 21.902963,243.31297 h -9.57832 c -2.6122686,0 -4.7891613,2.17692 -4.7891613,5.00688 v 28.29957 c 0,2.82996 2.1768927,5.00685 4.7891613,5.00685 h 9.57832 c 11.102152,0 19.156665,-8.05448 19.156665,-19.15664 0,-11.31984 -8.054513,-19.15666 -19.156665,-19.15666 z m 9.360651,19.15666 c 0,5.87763 -3.700737,9.79601 -9.360651,9.79601 h -4.789155 v -20.0274 h 4.789155 c 5.442237,0.21769 9.360651,4.1361 9.360651,10.23139 z"
     id="path3188"
     inkscape:connector-curvature="0"
     style="fill:#1d1d1b" /><path
     d="M 77.413737,272.48334 H 62.828545 v -5.65994 h 11.972902 c 2.39459,0 4.3538,-1.95917 4.3538,-4.57145 0,-2.39458 -1.95921,-4.57147 -4.3538,-4.57147 H 62.828545 v -5.44224 h 14.149812 c 2.39459,0 4.35379,-1.95922 4.35379,-4.57149 0,-2.39456 -1.9592,-4.57145 -4.35379,-4.57145 H 58.039369 c -2.612263,0 -4.789151,2.17689 -4.789151,5.00685 v 28.29959 c 0,2.82997 2.176888,5.00685 4.789151,5.00685 h 19.156668 c 2.3946,0 4.353779,-1.95921 4.353779,-4.57147 0,-2.39458 -1.74151,-4.35378 -4.136079,-4.35378 z"
     id="path3190"
     inkscape:connector-curvature="0"
     style="fill:#1d1d1b" /><path
     d="m 134.44831,267.69418 c 4.13611,-2.17689 6.313,-6.09531 6.313,-11.53753 0,-3.70072 -1.08845,-6.74837 -3.26534,-8.92527 -2.39459,-2.61227 -6.09531,-3.91841 -10.66678,-3.91841 h -11.75522 c -2.61227,0 -4.78916,2.17692 -4.78916,5.00688 v 28.51727 c 0,2.82996 2.17689,5.00686 4.78916,5.00686 2.61227,0 4.78917,-2.1769 4.78917,-5.00686 v -6.96606 h 4.57147 l 6.96605,9.36065 c 1.30615,1.7415 2.61228,2.39456 4.57148,2.39456 2.17691,0 4.57148,-1.74151 4.57148,-4.57146 0,-1.52384 -0.65307,-2.61227 -1.52381,-3.70071 l -4.5715,-5.65992 z m -3.04765,-10.88446 c 0,2.61227 -1.74152,4.13608 -4.78915,4.13608 h -6.74837 v -8.48987 h 6.53067 c 2.17689,0 5.00685,0.65306 5.00685,4.35379 z"
     id="path3192"
     inkscape:connector-curvature="0"
     style="fill:#1d1d1b" /><path
     d="m 177.33311,272.48334 h -14.5852 v -5.65994 h 11.97292 c 2.39459,0 4.35378,-1.95917 4.35378,-4.57145 0,-2.39458 -1.95919,-4.57147 -4.35378,-4.57147 h -11.97292 v -5.44224 h 14.14981 c 2.39456,0 4.35378,-1.95922 4.35378,-4.57149 0,-2.39456 -1.95922,-4.57145 -4.35378,-4.57145 h -18.93896 c -2.61228,0 -4.78917,2.17689 -4.78917,5.00685 v 28.29959 c 0,2.82997 2.17689,5.00685 4.78917,5.00685 h 19.15666 c 2.39456,0 4.35378,-1.95921 4.35378,-4.57147 0.21769,-2.39458 -1.74152,-4.35378 -4.13609,-4.35378 z"
     id="path3194"
     inkscape:connector-curvature="0"
     style="fill:#1d1d1b" /><path
     d="m 220.65325,269.00032 c -1.08845,0 -1.95921,0.43535 -2.82996,1.08842 -1.95922,1.52383 -3.70072,2.61228 -6.74835,2.61228 -5.00686,0 -8.92527,-4.57146 -8.92527,-10.44907 0,-5.87761 3.91841,-10.44908 8.92527,-10.44908 2.39457,0 4.35377,0.65306 6.53066,2.39458 0.65307,0.43537 1.52384,0.87076 2.82997,0.87076 2.61226,0 4.57147,-2.17691 4.57147,-4.78919 0,-1.52381 -0.65307,-3.04764 -1.74151,-3.91839 -3.26534,-2.61227 -7.18377,-3.91841 -11.97289,-3.91841 -10.66679,0 -18.72131,8.48989 -18.72131,19.80973 v 0 c 0,11.10215 7.83683,19.59203 18.50361,19.59203 5.22454,0 9.14293,-1.52383 12.84365,-4.78917 1.08845,-0.87075 1.52383,-2.1769 1.52383,-3.48302 -0.21768,-2.39459 -2.17689,-4.57147 -4.78917,-4.57147 z"
     id="path3196"
     inkscape:connector-curvature="0"
     style="fill:#1d1d1b" /><path
     d="m 263.75573,242.87761 c -2.61228,0 -4.78916,2.17688 -4.78916,5.00684 v 9.79603 h -11.97291 v -9.79603 c 0,-2.82996 -2.1769,-5.00684 -4.78918,-5.00684 -2.61226,0 -4.78915,2.17688 -4.78915,5.00684 v 28.95267 c 0,2.82996 2.17689,5.00686 4.78915,5.00686 2.61228,0 4.78918,-2.1769 4.78918,-5.00686 V 266.8234 h 11.97291 v 10.01372 c 0,2.82996 2.17688,5.00686 4.78916,5.00686 2.61224,0 4.78917,-2.1769 4.78917,-5.00686 v -28.95267 c -0.21771,-2.82996 -2.17693,-5.00684 -4.78917,-5.00684 z"
     id="path3198"
     inkscape:connector-curvature="0"
     style="fill:#1d1d1b" /><path
     d="m 306.20514,272.48334 h -14.58521 v -5.65994 h 11.97292 c 2.39459,0 4.35378,-1.95917 4.35378,-4.57145 0,-2.39458 -1.95919,-4.57147 -4.35378,-4.57147 h -11.97292 v -5.44224 h 14.14982 c 2.39456,0 4.35378,-1.95922 4.35378,-4.57149 0,-2.39456 -1.95922,-4.57145 -4.35378,-4.57145 h -18.93897 c -2.61227,0 -4.78917,2.17689 -4.78917,5.00685 v 28.29959 c 0,2.82997 2.1769,5.00685 4.78917,5.00685 h 19.15666 c 2.39457,0 4.35377,-1.95921 4.35377,-4.57147 0.2177,-2.39458 -1.7415,-4.35378 -4.13607,-4.35378 z"
     id="path3200"
     inkscape:connector-curvature="0"
     style="fill:#1d1d1b" /><path
     d="m 346.913,267.69418 c 4.1361,-2.17689 6.31299,-6.09531 6.31299,-11.53753 0,-3.70072 -1.08845,-6.74837 -3.26534,-8.92527 -2.39458,-2.61227 -6.0953,-3.91841 -10.66677,-3.91841 h -11.75523 c -2.61227,0 -4.78914,2.17692 -4.78914,5.00688 v 28.51727 c 0,2.82996 2.17687,5.00686 4.78914,5.00686 2.61228,0 4.78918,-2.1769 4.78918,-5.00686 v -6.96606 h 4.57147 l 6.96605,9.36065 c 1.30615,1.7415 2.61226,2.39456 4.57148,2.39456 2.1769,0 4.57147,-1.74151 4.57147,-4.57146 0,-1.52384 -0.65306,-2.61227 -1.52381,-3.70071 l -4.57149,-5.65992 z m -3.26532,-10.88446 c 0,2.61227 -1.74153,4.13608 -4.78918,4.13608 h -6.74837 v -8.48987 h 6.53067 c 2.3946,0 5.00688,0.65306 5.00688,4.35379 z"
     id="path3202"
     inkscape:connector-curvature="0"
     style="fill:#1d1d1b" /><path
     d="m 392.62773,269.00032 c -1.08843,0 -1.95919,0.43535 -2.82994,1.08842 -1.95921,1.52383 -3.70073,2.61228 -6.74838,2.61228 -5.00684,0 -8.92523,-4.57146 -8.92523,-10.44907 0,-5.87761 3.91839,-10.44908 8.92523,-10.44908 2.39458,0 4.35379,0.65306 6.53067,2.39458 0.65308,0.43537 1.52383,0.87076 2.82997,0.87076 2.61227,0 4.57148,-2.17691 4.57148,-4.78919 0,-1.52381 -0.65307,-3.04764 -1.74153,-3.91839 -3.26533,-2.61227 -7.18373,-3.91841 -11.9729,-3.91841 -10.66677,0 -18.72125,8.48989 -18.72125,19.80973 v 0 c 0,11.10215 7.8368,19.59203 18.50356,19.59203 5.22454,0 9.14295,-1.52383 12.84367,-4.78917 1.08845,-0.87075 1.52382,-2.1769 1.52382,-3.48302 -0.43537,-2.39459 -2.39458,-4.57147 -4.78917,-4.57147 z"
     id="path3204"
     inkscape:connector-curvature="0"
     style="fill:#1d1d1b" /><path
     d="m 436.38328,243.0953 c -2.61228,0 -4.78915,2.17689 -4.78915,5.00685 v 9.79602 H 419.6212 v -9.79602 c 0,-2.82996 -2.17688,-5.00685 -4.78916,-5.00685 -2.61226,0 -4.78916,2.17689 -4.78916,5.00685 v 28.95266 c 0,2.82995 2.1769,5.00685 4.78916,5.00685 2.61228,0 4.78916,-2.1769 4.78916,-5.00685 v -10.0137 h 11.97293 v 10.0137 c 0,2.82995 2.17687,5.00685 4.78915,5.00685 2.61227,0 4.78918,-2.1769 4.78918,-5.00685 v -28.95266 c 0,-2.82996 -2.17691,-5.00685 -4.78918,-5.00685 z"
     id="path3206"
     inkscape:connector-curvature="0"
     style="fill:#1d1d1b" /><path
     d="m 478.17961,272.48334 h -14.58517 v -5.65994 h 11.97289 c 2.3946,0 4.35381,-1.95917 4.35381,-4.57145 0,-2.39458 -1.95921,-4.57147 -4.35381,-4.57147 h -11.97289 v -5.44224 h 14.1498 c 2.39458,0 4.35378,-1.95922 4.35378,-4.57149 0,-2.39456 -1.9592,-4.57145 -4.35378,-4.57145 h -18.93898 c -2.61228,0 -4.78916,2.17689 -4.78916,5.00685 v 28.29959 c 0,2.82997 2.17688,5.00685 4.78916,5.00685 h 19.15667 c 2.39457,0 4.35379,-1.95921 4.35379,-4.57147 0.21768,-2.39458 -1.74152,-4.35378 -4.13611,-4.35378 z"
     id="path3208"
     inkscape:connector-curvature="0"
     style="fill:#1d1d1b" /><path
     d="M 31.481301,341.49083 H 16.896118 v -5.65993 h 11.972908 c 2.394588,0 4.353787,-1.95921 4.353787,-4.57148 0,-2.39459 -1.959199,-4.57145 -4.353787,-4.57145 H 16.896118 v -5.44224 h 14.149784 c 2.3946,0 4.353787,-1.9592 4.353787,-4.57147 0,-2.39459 -1.959187,-4.57149 -4.353787,-4.57149 H 12.106956 c -2.6122695,0 -4.7891632,2.1769 -4.7891632,5.00687 v 28.29958 c 0,2.82996 2.1768937,5.00687 4.7891632,5.00687 h 19.156658 c 2.394563,0 4.353776,-1.95921 4.353776,-4.57148 0.217687,-2.1769 -1.741525,-4.35378 -4.136089,-4.35378 z"
     id="path3210"
     inkscape:connector-curvature="0"
     style="fill:#1d1d1b" /><path
     d="m 75.672207,312.10277 c -2.61228,0 -4.57147,2.1769 -4.57147,5.00687 v 15.67362 L 58.25707,314.93273 c -1.08845,-1.30612 -2.394589,-2.82996 -4.571476,-2.82996 H 52.81483 c -2.612274,0 -4.78915,2.1769 -4.78915,5.00687 v 28.95268 c 0,2.61225 2.176876,5.00684 4.571475,5.00684 2.612276,0 4.571465,-2.17691 4.571465,-5.00684 v -16.54441 l 13.279052,18.50358 c 1.088452,1.30615 2.394565,2.82997 4.571486,2.82997 h 0.217679 c 2.61228,0 4.78917,-2.17689 4.78917,-5.00685 v -28.95267 c 0.217701,-2.61227 -1.95921,-4.78917 -4.3538,-4.78917 z"
     id="path3212"
     inkscape:connector-curvature="0"
     style="fill:#1d1d1b" /><path
     d="m 61.740095,173.65241 c -2.612276,0 -4.571475,2.17691 -4.571475,5.00688 V 194.3329 L 44.324954,176.48238 c -1.088438,-1.30613 -2.394575,-2.82997 -4.571464,-2.82997 h -0.870774 c -2.612264,0 -4.789139,2.17691 -4.789139,5.00688 v 28.95265 c 0,2.61228 2.176875,5.00685 4.571463,5.00685 2.612275,0 4.571476,-2.17688 4.571476,-5.00685 v -16.54438 l 13.27904,18.5036 c 1.08845,1.30614 2.394577,2.82996 4.571477,2.82996 h 0.217686 c 2.612276,0 4.789164,-2.1769 4.789164,-5.00685 V 178.4416 c 0.217689,-2.61228 -1.741525,-4.78919 -4.353788,-4.78919 z"
     id="path3214"
     inkscape:connector-curvature="0"
     style="fill:#1d1d1b" /><path
     d="m 115.94473,312.10277 c -2.61226,0 -4.78918,2.1769 -4.78918,5.00687 v 28.95268 c 0,2.82993 2.17692,5.00684 4.78918,5.00684 2.61228,0 4.78915,-2.17691 4.78915,-5.00684 v -28.95268 c -0.21768,-2.82997 -2.17687,-5.00687 -4.78915,-5.00687 z"
     id="path3216"
     inkscape:connector-curvature="0"
     style="fill:#1d1d1b" /><path
     d="m 188.43526,312.32047 c -2.61227,0 -4.78918,2.17689 -4.78918,5.00685 v 28.95267 c 0,2.82996 2.17691,5.00686 4.78918,5.00686 2.61227,0 4.78914,-2.1769 4.78914,-5.00686 v -28.95267 c -0.21768,-2.82996 -2.17687,-5.00685 -4.78914,-5.00685 z"
     id="path3218"
     inkscape:connector-curvature="0"
     style="fill:#1d1d1b" /><path
     d="m 164.48942,312.10277 c -2.61227,0 -4.57147,2.1769 -4.57147,5.00687 v 15.67362 L 147.0743,314.93273 c -1.08844,-1.30612 -2.39459,-2.82996 -4.57147,-2.82996 h -0.87075 c -2.61227,0 -4.78918,2.1769 -4.78918,5.00687 v 28.95268 c 0,2.61225 2.17691,5.00684 4.57148,5.00684 2.61228,0 4.57148,-2.17691 4.57148,-5.00684 v -16.54441 l 13.27901,18.50358 c 1.08847,1.30615 2.39461,2.82997 4.57149,2.82997 h 0.21769 c 2.61228,0 4.78916,-2.17689 4.78916,-5.00685 v -28.95267 c 0.21769,-2.61227 -1.74151,-4.78917 -4.35379,-4.78917 z"
     id="path3220"
     inkscape:connector-curvature="0"
     style="fill:#1d1d1b" /><path
     d="m 233.71461,311.88509 c -10.66678,0 -19.15666,8.70758 -19.15666,19.80971 0,11.10215 8.27219,19.59205 18.93897,19.59205 10.66678,0 19.15666,-8.70758 19.15666,-19.80974 0.21768,-11.31983 -8.0545,-19.59202 -18.93897,-19.59202 z m 9.36064,19.80971 c 0,5.8776 -3.9184,10.44908 -9.36064,10.44908 -5.44223,0 -9.36064,-4.57148 -9.36064,-10.44908 0,-5.87759 3.91841,-10.44907 9.36064,-10.44907 5.44224,-0.21769 9.36064,4.35379 9.36064,10.44907 l 0,0 z"
     id="path3222"
     inkscape:connector-curvature="0"
     style="fill:#1d1d1b" /><path
     d="m 290.5315,336.91933 c 4.13609,-2.17686 6.31297,-6.09528 6.31297,-11.53751 0,-3.70071 -1.08843,-6.74836 -3.26533,-8.92526 -2.39458,-2.61227 -6.0953,-3.91839 -10.66677,-3.91839 h -11.75522 c -2.61225,0 -4.78918,2.17687 -4.78918,5.00683 v 28.51732 c 0,2.82993 2.17693,5.00684 4.78918,5.00684 2.61228,0 4.78916,-2.17691 4.78916,-5.00684 v -6.96607 h 4.57147 l 6.96606,9.36063 c 1.30613,1.74151 2.61228,2.39458 4.57149,2.39458 2.17687,0 4.57147,-1.74151 4.57147,-4.57147 0,-1.52382 -0.65308,-2.61228 -1.52383,-3.70072 l -4.57147,-5.65994 z m -3.26534,-11.10212 c 0,2.61227 -1.74153,4.1361 -4.78917,4.1361 h -6.74836 v -8.48988 h 6.53067 c 2.39458,0 5.00686,0.87075 5.00686,4.35378 z"
     id="path3224"
     inkscape:connector-curvature="0"
     style="fill:#1d1d1b" /><path
     d="m 341.68846,312.10277 h -0.87076 c -1.74151,0 -3.26533,0.87076 -4.13608,2.39459 l -8.2722,14.36747 -8.27218,-14.36747 c -0.87076,-1.7415 -2.39459,-2.61227 -4.35379,-2.61227 h -0.87075 c -2.61228,0 -4.78917,2.17688 -4.78917,5.00685 v 28.95267 c 0,2.61227 1.95921,4.78916 4.57148,4.78916 2.61226,0 4.57147,-2.17689 4.57147,-4.78916 v -14.58519 l 4.78916,7.61913 c 1.08843,1.74153 2.39456,2.39459 3.91839,2.39459 1.52383,0 2.82995,-0.87077 3.91841,-2.39459 l 4.78918,-7.83681 v 14.58518 c 0,2.82996 2.17688,5.00685 4.57145,5.00685 2.61228,0 4.78918,-2.17689 4.78918,-5.00685 v -28.73498 c 0.21769,-2.61227 -1.74152,-4.78917 -4.35379,-4.78917 z"
     id="path3226"
     inkscape:connector-curvature="0"
     style="fill:#1d1d1b" /><path
     d="m 393.28082,344.1031 -11.97294,-28.5173 c -1.08842,-2.39458 -2.82993,-3.70071 -5.22452,-3.70071 h -0.43537 c -2.39458,0 -4.35379,1.30613 -5.22455,3.70071 l -11.97291,28.5173 c -0.21768,0.65307 -0.43537,1.30612 -0.43537,2.17689 0,2.61226 1.9592,4.78917 4.35378,4.78917 1.95921,0 3.48303,-1.08845 4.35378,-3.04767 l 2.17691,-5.44222 h 13.7144 l 1.95921,5.00685 c 0.87075,2.1769 2.3946,3.26534 4.57145,3.26534 2.61228,0 4.57149,-2.17689 4.57149,-4.78914 0,-0.4354 -0.21768,-1.08847 -0.43536,-1.95922 z m -14.1498,-10.66678 h -6.53069 l 3.26535,-8.48987 3.26534,8.48987 z"
     id="path3228"
     inkscape:connector-curvature="0"
     style="fill:#1d1d1b" /><path
     d="M 425.28113,312.32047 H 403.2945 c -2.39457,0 -4.35378,2.17689 -4.35378,4.57147 0,2.61227 1.95921,4.57149 4.35378,4.57149 h 6.313 v 24.38118 c 0,2.82996 2.17688,5.00685 4.78915,5.00685 2.61229,0 4.78918,-2.17689 4.78918,-5.00685 v -24.1635 h 6.31299 c 2.39457,0 4.35379,-2.1769 4.35379,-4.57147 0,-2.61228 -1.95922,-4.78917 -4.57148,-4.78917 z"
     id="path3230"
     inkscape:connector-curvature="0"
     style="fill:#1d1d1b" /><path
     d="m 446.1793,312.10277 c -2.61228,0 -4.78919,2.1769 -4.78919,5.00687 v 28.95268 c 0,2.82993 2.17691,5.00684 4.78919,5.00684 2.61227,0 4.78914,-2.17691 4.78914,-5.00684 v -28.95268 c -0.21767,-2.82997 -2.17687,-5.00687 -4.78914,-5.00687 z"
     id="path3232"
     inkscape:connector-curvature="0"
     style="fill:#1d1d1b" /><path
     d="m 482.75109,311.88509 c -10.66678,0 -19.15665,8.70758 -19.15665,19.80971 v 0 c 0,5.44223 1.9592,10.66677 5.65993,14.36752 3.48302,3.48301 8.05448,5.44219 13.27903,5.44219 0,0 0,0 0,0 11.53754,0 19.15663,-8.05447 19.15663,-19.80971 0.21772,-11.53752 -8.05447,-19.80971 -18.93894,-19.80971 z m 9.36063,19.59202 0,0 c 0,10.01372 -7.61912,10.44908 -9.36063,10.44908 -5.44224,0 -9.36064,-4.57147 -9.36064,-10.44908 0,-5.87759 3.9184,-10.44907 9.36064,-10.44907 5.44223,0 9.36063,4.57148 9.36063,10.44907 z"
     id="path3234"
     inkscape:connector-curvature="0"
     style="fill:#1d1d1b" /><path
     d="m 540.87411,312.10277 c -2.61228,0 -4.78915,2.1769 -4.78915,5.00687 v 17.19743 c 0,3.48304 -1.08847,7.83681 -6.31301,7.83681 -5.22453,0 -6.31299,-4.35377 -6.31299,-8.05451 v -16.76205 c 0,-2.82996 -2.17688,-5.00685 -4.78917,-5.00685 -2.61224,0 -4.78916,2.17689 -4.78916,5.00685 v 16.97975 c 0,10.88447 5.65994,16.97978 15.67363,16.97978 10.01372,0 15.89133,-6.313 15.89133,-17.41516 v -16.76205 c 0,-2.82997 -1.95922,-5.00687 -4.57148,-5.00687 z"
     id="path3236"
     inkscape:connector-curvature="0"
     style="fill:#1d1d1b" /><path
     d="m 582.88812,341.49083 h -14.58518 v -5.65993 h 11.97291 c 2.39458,0 4.35379,-1.95921 4.35379,-4.57148 0,-2.39459 -1.95921,-4.57145 -4.35379,-4.57145 h -11.97291 v -5.44224 h 14.14981 c 2.39459,0 4.3538,-1.9592 4.3538,-4.57147 0,-2.39459 -1.95921,-4.57149 -4.3538,-4.57149 h -18.93898 c -2.61225,0 -4.78913,2.1769 -4.78913,5.00687 v 28.29958 c 0,2.82996 2.17688,5.00687 4.78913,5.00687 h 19.15666 c 2.3946,0 4.35379,-1.95921 4.35379,-4.57148 0.21769,-2.1769 -1.74152,-4.35378 -4.1361,-4.35378 z"
     id="path3238"
     inkscape:connector-curvature="0"
     style="fill:#1d1d1b" /><circle
     cx="400.10001"
     cy="355.5"
     r="2.3"
     id="circle3240"
     sodipodi:cx="400.10001"
     sodipodi:cy="355.5"
     sodipodi:rx="2.3"
     sodipodi:ry="2.3"
     transform="matrix(2.1768923,0,0,2.1768923,-371.02608,-420.63918)"
     style="fill:#1d1d1b" /><g
     id="g3242"
     transform="matrix(2.1768923,0,0,2.1768923,-371.02608,-420.63918)"><circle
       cx="262.70001"
       cy="338.89999"
       r="2.3"
       id="circle3244"
       d="m 265.00001,338.89999 c 0,1.27026 -1.02974,2.3 -2.3,2.3 -1.27025,0 -2.3,-1.02974 -2.3,-2.3 0,-1.27025 1.02975,-2.3 2.3,-2.3 1.27026,0 2.3,1.02975 2.3,2.3 z"
       sodipodi:cx="262.70001"
       sodipodi:cy="338.89999"
       sodipodi:rx="2.3"
       sodipodi:ry="2.3"
       style="fill:#1d1d1b" /><circle
       cx="262.70001"
       cy="344.89999"
       r="2.3"
       id="circle3246"
       d="m 265.00001,344.89999 c 0,1.27026 -1.02974,2.3 -2.3,2.3 -1.27025,0 -2.3,-1.02974 -2.3,-2.3 0,-1.27025 1.02975,-2.3 2.3,-2.3 1.27026,0 2.3,1.02975 2.3,2.3 z"
       sodipodi:cx="262.70001"
       sodipodi:cy="344.89999"
       sodipodi:rx="2.3"
       sodipodi:ry="2.3"
       style="fill:#1d1d1b" /></g><path
     d="m 12.324643,381.11026 c -2.6122686,0 -4.7891613,2.17691 -4.7891613,5.00687 v 28.95265 c 0,2.82997 2.1768927,5.00686 4.7891613,5.00686 2.612271,0 4.789165,-2.17689 4.789165,-5.00686 v -28.95265 c 0,-2.82996 -2.176894,-5.00687 -4.789165,-5.00687 z"
     id="path3248"
     inkscape:connector-curvature="0"
     style="fill:#1d1d1b" /><g
     id="g3250"
     transform="matrix(2.1768923,0,0,2.1768923,-371.02608,-420.63918)"><circle
       cx="181.8"
       cy="370.60001"
       r="2.3"
       id="circle3252"
       d="m 184.1,370.60001 c 0,1.27025 -1.02974,2.3 -2.3,2.3 -1.27025,0 -2.3,-1.02975 -2.3,-2.3 0,-1.27026 1.02975,-2.3 2.3,-2.3 1.27026,0 2.3,1.02974 2.3,2.3 z"
       sodipodi:cx="181.8"
       sodipodi:cy="370.60001"
       sodipodi:rx="2.3"
       sodipodi:ry="2.3"
       style="fill:#1d1d1b" /><circle
       cx="181.8"
       cy="376.60001"
       r="2.3"
       id="circle3254"
       d="m 184.1,376.60001 c 0,1.27025 -1.02974,2.3 -2.3,2.3 -1.27025,0 -2.3,-1.02975 -2.3,-2.3 0,-1.27026 1.02975,-2.3 2.3,-2.3 1.27026,0 2.3,1.02974 2.3,2.3 z"
       sodipodi:cx="181.8"
       sodipodi:cy="376.60001"
       sodipodi:rx="2.3"
       sodipodi:ry="2.3"
       style="fill:#1d1d1b" /></g><path
     d="m 58.692456,380.89259 c -10.666776,0 -19.156641,8.70757 -19.156641,19.80971 v 0 c 0,11.10214 8.272165,19.59202 18.938942,19.59202 10.666774,0 19.15666,-8.70756 19.15666,-19.80972 0,-11.10213 -8.054509,-19.59201 -18.938961,-19.59201 z m 9.360645,19.80971 c 0,5.8776 -3.91843,10.44908 -9.360645,10.44908 -5.442238,0 -9.360651,-4.57148 -9.360651,-10.44908 0,-5.87762 3.918413,-10.4491 9.360651,-10.4491 5.224539,0 9.360645,4.3538 9.360645,10.4491 l 0,0 z"
     id="path3256"
     inkscape:connector-curvature="0"
     style="fill:#1d1d1b" /><path
     d="m 117.68624,381.32795 c -2.61227,0 -4.57147,2.17691 -4.57147,5.00684 v 15.67363 l -12.84366,-17.8505 c -1.088446,-1.30614 -2.394586,-2.82997 -4.571465,-2.82997 h -0.870771 c -2.612269,0 -4.789148,2.17691 -4.789148,5.00684 v 28.95268 c 0,2.61228 2.176879,5.00685 4.571458,5.00685 2.61227,0 4.57148,-2.17688 4.57148,-5.00685 v -16.54438 l 13.279036,18.50359 c 1.08846,1.30612 2.39459,2.82996 4.57148,2.82996 h 0.21768 c 2.61228,0 4.78917,-2.17689 4.78917,-5.00686 v -28.95265 c 0.43537,-2.61227 -1.74153,-4.78918 -4.35379,-4.78918 z"
     id="path3258"
     inkscape:connector-curvature="0"
     style="fill:#1d1d1b" /><path
     d="m 150.775,381.54565 h -9.57831 c -2.61227,0 -4.78918,2.17687 -4.78918,5.00683 v 28.29962 c 0,2.82995 2.17691,5.00685 4.78918,5.00685 h 9.57831 c 11.10215,0 19.15665,-8.05451 19.15665,-19.15665 0,-11.10214 -8.0545,-19.15665 -19.15665,-19.15665 z m 9.36064,19.15665 c 0,5.8776 -3.70071,9.79601 -9.36064,9.79601 h -4.78914 v -20.02742 h 4.78914 c 5.44224,0.21768 9.36064,4.13611 9.36064,10.23141 z"
     id="path3260"
     inkscape:connector-curvature="0"
     style="fill:#1d1d1b" /><path
     d="m 257.22505,381.32795 h -0.87076 c -1.74152,0 -3.26533,0.87074 -4.13609,2.39457 l -8.2722,14.36751 -8.27218,-14.36751 c -0.87076,-1.7415 -2.39459,-2.61226 -4.35379,-2.61226 h -0.87075 c -2.61228,0 -4.78917,2.17691 -4.78917,5.00687 v 29.17034 c 0,2.61228 1.9592,4.78917 4.57147,4.78917 2.61226,0 4.57148,-2.17689 4.57148,-4.78917 V 400.7023 l 4.78916,7.61912 c 1.08843,1.74151 2.39458,2.39457 3.9184,2.39457 1.52382,0 2.82995,-0.87076 3.91841,-2.39457 l 4.78917,-7.83682 v 14.58518 c 0,2.82997 2.17687,5.00686 4.57146,5.00686 2.61226,0 4.78918,-2.17689 4.78918,-5.00686 v -28.73499 c 0.43537,-2.82993 -1.74153,-5.00684 -4.35379,-5.00684 z"
     id="path3262"
     inkscape:connector-curvature="0"
     style="fill:#1d1d1b" /><path
     d="m 299.89213,410.71599 h -14.58518 v -5.65991 h 11.97291 c 2.39457,0 4.35379,-1.9592 4.35379,-4.57148 0,-2.39457 -1.95922,-4.57148 -4.35379,-4.57148 h -11.97291 v -5.44223 h 14.14979 c 2.39461,0 4.35379,-1.95918 4.35379,-4.57145 0,-2.39458 -1.95918,-4.57149 -4.35379,-4.57149 h -18.93896 c -2.61225,0 -4.78915,2.17691 -4.78915,5.00684 v 28.29961 c 0,2.82997 2.1769,5.00686 4.78915,5.00686 h 19.15665 c 2.3946,0 4.35379,-1.95921 4.35379,-4.57148 0.2177,-2.17688 -1.74151,-4.35379 -4.13609,-4.35379 z"
     id="path3264"
     inkscape:connector-curvature="0"
     style="fill:#1d1d1b" /><path
     d="m 344.08304,381.32795 c -2.61228,0 -4.57147,2.17691 -4.57147,5.00684 v 15.67363 l -12.84368,-17.8505 c -1.08842,-1.30614 -2.39456,-2.82997 -4.57146,-2.82997 h -0.87075 c -2.61228,0 -4.78916,2.17691 -4.78916,5.00684 v 28.95268 c 0,2.61228 2.17688,5.00685 4.57148,5.00685 2.39458,0 4.57147,-2.17688 4.57147,-5.00685 v -16.54438 l 13.27903,18.50359 c 1.08845,1.30612 2.39457,2.82996 4.57148,2.82996 h 0.2177 c 2.61226,0 4.78915,-2.17689 4.78915,-5.00686 v -28.95265 c 0.2177,-2.61227 -1.95922,-4.78918 -4.35379,-4.78918 z"
     id="path3266"
     inkscape:connector-curvature="0"
     style="fill:#1d1d1b" /><path
     d="m 386.31477,381.54565 h -21.98662 c -2.39458,0 -4.35379,2.17687 -4.35379,4.57148 0,2.61228 1.95921,4.57144 4.35379,4.57144 h 6.31299 v 24.38121 c 0,2.82997 2.17689,5.00686 4.78915,5.00686 2.61228,0 4.78917,-2.17689 4.78917,-5.00686 v -24.38121 h 6.31297 c 2.39459,0 4.35379,-2.17686 4.35379,-4.57144 -0.21768,-2.39461 -2.17688,-4.57148 -4.57145,-4.57148 z"
     id="path3268"
     inkscape:connector-curvature="0"
     style="fill:#1d1d1b" /><path
     d="m 431.15874,413.32827 -11.97291,-28.5173 c -1.08845,-2.39456 -2.82996,-3.70071 -5.22454,-3.70071 h -0.43539 c -2.39457,0 -4.35379,1.30615 -5.22455,3.70071 l -11.97289,28.5173 c -0.2177,0.65307 -0.43538,1.30613 -0.43538,2.17689 0,2.61228 1.9592,4.78916 4.35378,4.78916 1.95921,0 3.48302,-1.08843 4.35379,-3.04764 l 2.17689,-5.44224 h 13.71442 l 1.95922,5.00686 c 0.87074,2.17689 2.39457,3.26534 4.57147,3.26534 2.61227,0 4.57148,-2.17689 4.57148,-4.78917 0.21766,-0.65307 0,-1.30613 -0.43539,-1.9592 z m -14.1498,-10.66677 h -6.53068 l 3.26533,-8.48988 3.26535,8.48988 z"
     id="path3270"
     inkscape:connector-curvature="0"
     style="fill:#1d1d1b" /><path
     d="m 213.46951,413.32827 -11.9729,-28.5173 c -1.08845,-2.39456 -2.82997,-3.70071 -5.22454,-3.70071 h -0.43539 c -2.39458,0 -4.35378,1.30615 -5.22455,3.70071 l -11.9729,28.5173 c -0.2177,0.65307 -0.43538,1.30613 -0.43538,2.17689 0,2.61228 1.95921,4.78916 4.3538,4.78916 1.95918,0 3.48302,-1.08843 4.35378,-3.04764 l 2.17688,-5.44224 h 13.71443 l 1.95918,5.00686 c 0.87079,2.17689 2.3946,3.26534 4.5715,3.26534 2.61226,0 4.57149,-2.17689 4.57149,-4.78917 0,-0.65307 -0.21771,-1.30613 -0.4354,-1.9592 z m -14.1498,-10.66677 h -6.53068 l 3.26534,-8.48988 3.26534,8.48988 z"
     id="path3272"
     inkscape:connector-curvature="0"
     style="fill:#1d1d1b" /><path
     d="m 465.77134,410.49831 h -12.84368 v -24.38118 c 0,-2.82996 -2.17689,-5.00687 -4.78917,-5.00687 -2.61227,0 -4.78916,2.17691 -4.78916,5.00687 v 28.51727 c 0,2.82997 2.17689,5.00686 4.78916,5.00686 h 17.63285 c 2.39456,0 4.35378,-1.95921 4.35378,-4.57148 0,-2.61227 -1.95922,-4.57147 -4.35378,-4.57147 z"
     id="path3274"
     inkscape:connector-curvature="0"
     style="fill:#1d1d1b" /><path
     d="M 505.17307,410.71599 H 490.5879 v -5.65991 h 11.97292 c 2.39457,0 4.35376,-1.9592 4.35376,-4.57148 0,-2.39457 -1.95919,-4.57148 -4.35376,-4.57148 H 490.5879 v -5.44223 h 14.1498 c 2.39457,0 4.35378,-1.95918 4.35378,-4.57145 0,-2.39458 -1.95921,-4.57149 -4.35378,-4.57149 h -18.93896 c -2.61227,0 -4.78917,2.17691 -4.78917,5.00684 v 28.29961 c 0,2.82997 2.1769,5.00686 4.78917,5.00686 h 19.15665 c 2.39457,0 4.35378,-1.95921 4.35378,-4.57148 0.21767,-2.17688 -1.7415,-4.35379 -4.1361,-4.35379 z"
     id="path3276"
     inkscape:connector-curvature="0"
     style="fill:#1d1d1b" /></svg>